inDegrees=yes
name=IK_Results.mot
DataType=double
version=3
OpenSimVersion=4.4-2022-08-12-dcf8e2cb1
endheader
time	TH_x	TH_y	TH_z	TH_transx	TH_transy	TH_transz	SC_y	SC_z	SC_x	AC_y	AC_z	AC_x	GH_y	GH_z	GH_yy	EL_x	PS_y
3.059999999999979	23.09746348067734	-105.8942150809351	9.72214166047519	0	0	0	-38.40649609993969	13.42071370172784	20.07681784035593	52.26389001744785	-8.779825084593691	4.874097787166733	6.989025595250627	-7.423671108518769	-2.966590593620936	13.5507168980306	89.36483725234177
3.069999999999979	21.63835013247835	-105.1622418173415	6.678315543413185	0	0	0	-38.57661211338538	14.31319399329118	20.26941387426687	52.32757417734105	-8.103595248801758	4.250736077893619	7.297056664731034	-6.787235531783166	-2.777633338711424	14.16868905462427	89.30390721411574
3.079999999999978	21.63284878519693	-105.1635069058242	6.679151042575453	0	0	0	-38.58357316687832	14.31292197142083	20.26880516511777	52.31025052872968	-8.10297265707228	4.245999234982368	7.304659964013905	-6.789037773466214	-2.764796264683145	14.17329930997763	89.32244703675222
3.089999999999978	20.59373936053604	-105.3418042502943	4.144451321910819	0	0	0	-38.67709500804955	14.72846082570652	20.53665625402765	52.29574187145305	-7.707234186989903	4.025254149642326	7.041017520830477	-6.261443354772941	-2.903344100704113	15.7919753418065	89.21388284944966
3.099999999999978	20.38161265502621	-106.2699170917534	4.091449766198473	0	0	0	-38.83082516941414	14.2166568350738	20.46087258455657	51.99127361040507	-8.043874479102078	4.36861252597539	6.571425308744121	-6.529407760465055	-3.273094647437746	15.17668924618452	89.26171548178947
3.109999999999978	18.0361781399261	-106.1014731406853	2.435515937844042	0	0	0	-38.97513473293988	14.077526440683	20.20276927260202	51.84739878362674	-8.337903966931332	4.336458076190672	6.259739884297105	-6.83094193960109	-3.533808537328301	14.28384618201929	89.31578053072751
3.119999999999977	17.32720231568975	-105.9949971570783	1.877665754206955	0	0	0	-38.63996371806724	14.31746013825084	20.34806187435592	52.1936299145548	-8.159909027139104	4.269256700411652	6.726890571988551	-6.670106986752283	-3.085334771738933	13.61984848186163	89.35882284481534
3.129999999999977	17.31272780607795	-106.0040513904097	1.875748689909278	0	0	0	-38.63873711459321	14.32708951454901	20.34606859539535	52.18891517615207	-8.159968450626602	4.268049870254503	6.722634588728763	-6.681084694411271	-3.081185552305576	13.64194812813193	89.36119022509772
3.139999999999977	21.19237040757802	-106.325649081195	4.78694724121396	0	0	0	-37.58796570019765	13.93887993646271	21.29466892077394	52.77525496469671	-7.813292272249388	5.243801430452461	7.741884315267351	-6.240525063027198	-1.98744824233253	11.7468151580377	89.5005029687848
3.149999999999977	14.63671002701385	-108.4105093651818	-0.638910169055555	0	0	0	-37.06202037574829	13.76566623798439	20.9876140735103	53.19960662595662	-8.359942649821944	5.299782153380315	7.74868859808313	-6.635641778214695	-1.832536432547754	10.2961427636643	89.6059486798495
3.159999999999977	9.354061076422468	-107.9917581386628	-4.375202222298507	0	0	0	-37.13092771499776	14.24718783645081	19.95725200058759	53.49664612771958	-8.971809458209844	4.502389542551509	7.196152778780418	-7.613097111764201	-2.302401848383666	11.65627271470782	89.50488643548439
3.169999999999976	4.853542402311405	-107.6931599760671	-8.577073601981729	0	0	0	-38.17976466139308	14.78341513434556	19.04950753796239	52.86167417901822	-9.186653975933048	3.454832565926789	6.090873400958002	-7.905860540063379	-3.429174006208955	13.19486842668562	89.39458019635592
3.179999999999976	10.32227516997965	-107.0753678463656	-3.746098017096676	0	0	0	-36.17673444232205	13.74316256326865	20.59565007790225	53.99746362430632	-8.802320304172182	5.333431917717915	8.356724184549941	-7.351148518606374	-1.078576540233583	5.991458379693172	89.92836884330497
3.189999999999976	10.31842631958936	-107.090577226355	-3.729789565415503	0	0	0	-36.17866765947576	13.7469705969438	20.57338569306691	53.98540723633902	-8.793549659019838	5.332038201187844	8.375347282195557	-7.382846313211807	-1.049753879815873	6.028035717465857	89.92824433006311
